<svg width="512" height="512" viewBox="0 0 512 512" fill="none" xmlns="http://www.w3.org/2000/svg">
<path d="M261.672 49C245.389 48.9999 229.266 52.0399 214.222 57.9463C199.179 63.8527 185.51 72.5099 173.996 83.4235C162.482 94.3372 153.349 107.294 147.117 121.553C140.886 135.812 137.679 151.096 137.679 166.53C137.679 181.964 140.886 197.247 147.117 211.507C153.348 225.766 162.482 238.723 173.996 249.637C185.51 260.55 199.178 269.208 214.222 275.114C229.266 281.02 245.389 284.06 261.672 284.06C294.557 284.06 326.096 271.678 349.349 249.636C372.602 227.595 385.665 197.701 385.665 166.53C385.665 135.359 372.602 105.465 349.348 83.4238C326.095 61.3827 294.557 49.0001 261.672 49ZM261.819 82.8037C291.01 82.8037 319.006 91.8578 339.647 107.974C360.289 124.091 371.885 145.949 371.885 168.741C371.885 191.533 360.289 213.392 339.647 229.508C319.006 245.625 291.01 254.679 261.819 254.679C232.628 254.679 204.632 245.625 183.991 229.508C163.349 213.392 151.753 191.533 151.753 168.741C151.753 145.949 163.349 124.091 183.991 107.974C204.632 91.8578 232.628 82.8037 261.819 82.8037Z" fill="#E09314"/>
<path d="M262.184 266.263C297.456 266.263 326.05 238.846 326.05 205.026C326.05 171.206 297.456 143.789 262.184 143.789C226.912 143.789 198.319 171.206 198.319 205.026C198.319 238.846 226.912 266.263 262.184 266.263Z" fill="#E09314"/>
<path d="M260.029 51.924C158.205 50.63 21 165.261 21 165.261C21 165.261 113.389 275.913 260.029 275.913C406.669 275.913 491 165.261 491 165.261C491 165.261 358.976 53.1814 260.029 51.924Z" stroke="#E09314" stroke-width="25"/>
<path fill-rule="evenodd" clip-rule="evenodd" d="M9 462.753H502.447V335.819H442.137V415.7H428.978V211.074L363.733 242.808V415.7H349.478V303.539H298.489V385.608H283.137V346.215H234.341V404.757H219.537V305.18L159.775 271.805V352.233H144.972V182.077L117.558 191.925V147.06H110.431V195.208L82.4688 206.15V415.7H67.1171V311.198H9V462.753ZM19.4172 325.971H29.2862V340.743H19.4172V325.971ZM19.4172 348.95H29.2862V363.723H19.4172V348.95ZM91.2412 224.752H101.11V239.525H91.2412V224.752ZM91.2412 248.826H101.11V263.598H91.2412V248.826ZM91.2412 272.352H101.11V287.125H91.2412V272.352ZM91.2412 296.426H101.11V311.198H91.2412V296.426ZM169.096 302.444H178.965V317.217H169.096V302.444ZM169.096 324.877H178.965V339.649H169.096V324.877ZM169.096 347.856H178.965V362.628H169.096V347.856ZM307.261 316.123H317.13V330.895H307.261V316.123ZM307.261 338.555H317.13V353.327H307.261V338.555ZM373.054 253.75H382.923V268.523H373.054V253.75ZM373.054 277.277H382.923V292.049H373.054V277.277ZM373.054 299.709H382.923V314.481H373.054V299.709ZM452.554 348.403H462.423V363.176H452.554V348.403ZM452.554 370.835H462.423V385.608H452.554V370.835ZM452.554 393.268H462.423V408.04H452.554V393.268Z" fill="black"/>
</svg>
